<?xml version="1.0" encoding="UTF-8" standalone="no"?>
<svg
   xmlns:osb="http://www.openswatchbook.org/uri/2009/osb"
   xmlns:svg="http://www.w3.org/2000/svg"
   xmlns="http://www.w3.org/2000/svg"
   xmlns:sodipodi="http://sodipodi.sourceforge.net/DTD/sodipodi-0.dtd"
   xmlns:inkscape="http://www.inkscape.org/namespaces/inkscape"
   sodipodi:docname="selftv.svg"
   inkscape:version="1.1-dev (60faa23c, 2020-06-06)"
   id="svg6"
   version="1.1"
   viewBox="0 0 66.060989 58.595295"
   height="48.595295mm"
   width="56.060989mm">
  <defs
     id="defs2">
    <linearGradient
       osb:paint="solid"
       id="linearGradient980">
      <stop
         id="stop978"
         offset="0"
         style="stop-color:#ffffff;stop-opacity:1;" />
    </linearGradient>
    <linearGradient
       osb:paint="solid"
       id="linearGradient827">
      <stop
         id="stop825"
         offset="0"
         style="stop-color:#000000;stop-opacity:1;" />
    </linearGradient>
  </defs>
  <sodipodi:namedview
     fit-margin-bottom="0"
     fit-margin-right="0"
     fit-margin-left="0"
     fit-margin-top="0"
     showguides="false"
     inkscape:window-maximized="0"
     inkscape:window-y="23"
     inkscape:window-x="32"
     inkscape:window-height="1035"
     inkscape:window-width="1888"
     showgrid="false"
     inkscape:current-layer="layer1"
     inkscape:document-units="mm"
     inkscape:cy="102.11468"
     inkscape:cx="114.80531"
     inkscape:zoom="1.6810232"
     inkscape:pageshadow="2"
     inkscape:pageopacity="0.0"
     borderopacity="1.0"
     bordercolor="#666666"
     pagecolor="#ffffff"
     id="base" />
  <g
     transform="translate(-7.2530193,-0.80344403)"
     id="layer1"
     inkscape:groupmode="layer"
     inkscape:label="Ebene 1">
    <rect
       ry="6.2445707"
       y="13.057451"
       x="7.2530193"
       height="46.34129"
       width="66.060989"
       id="rect8"
       style="fill:#ff5d1c;fill-opacity:1;fill-rule:evenodd;stroke:none;stroke-width:3.965;stroke-miterlimit:4;stroke-dasharray:none" />
    <path
       id="path831"
       d="M 26.808185,13.80591 16.136396,2.7596731"
       style="fill:none;stroke:#ff5d1c;stroke-width:2.065;stroke-linecap:butt;stroke-linejoin:miter;stroke-miterlimit:4;stroke-dasharray:none;stroke-opacity:1" />
    <ellipse
       ry="1.1857523"
       rx="1.2231984"
       cy="2.7721963"
       cx="16.074211"
       id="path833"
       style="fill:#ff5d1c;fill-opacity:1;stroke:#ff5d1c;stroke-width:1.566;stroke-miterlimit:4;stroke-dasharray:none;stroke-opacity:1" />
    <path
       style="fill:none;fill-opacity:1;stroke:#ff5d1c;stroke-width:2.065;stroke-linecap:butt;stroke-linejoin:miter;stroke-miterlimit:4;stroke-dasharray:none;stroke-opacity:1"
       d="M 26.808185,13.80591 37.479974,2.7596731"
       id="path831-2" />
    <ellipse
       transform="scale(-1,1)"
       style="fill:#ff5d1c;fill-opacity:1;stroke:#ff5d1c;stroke-width:1.466;stroke-miterlimit:4;stroke-dasharray:none;stroke-opacity:1"
       id="path833-4"
       cx="-37.54216"
       cy="2.7721963"
       rx="1.2231984"
       ry="1.1857523" />
    <path
       id="path880"
       d="M 11.613546,58.285204 C 10.486323,57.794214 9.3027299,56.372201 8.9143999,55.042341 8.7037366,54.320913 8.633817,48.353921 8.6932522,36.169406 L 8.780167,18.351449 9.4871501,17.319916 C 9.875991,16.752572 10.708883,15.993247 11.338023,15.632522 l 1.143889,-0.65586 27.193591,-0.08179 c 19.030918,-0.05724 27.572171,0.01196 28.454813,0.230513 1.67142,0.413875 2.757456,1.224093 3.443592,2.569033 0.543329,1.065014 0.563054,1.73432 0.563054,19.106719 0,17.696058 -0.01016,18.024067 -0.59685,19.23597 -0.39797,0.822097 -0.999323,1.468789 -1.804704,1.940774 l -1.207855,0.70785 -28.022819,-0.01114 c -22.65471,-0.009 -28.189169,-0.0836 -28.891188,-0.389382 z m 23.933087,-0.177085 c 8.754496,-0.817213 17.467407,-4.467736 22.368541,-9.371939 2.185924,-2.187289 2.974176,-3.88974 2.974176,-6.423551 0,-1.650344 -0.131614,-2.217126 -0.765056,-3.294608 C 58.442547,36.157386 55.765657,35.220544 45.115881,33.765468 33.360553,32.159344 31.661965,31.677408 30.483847,29.613957 l -0.632206,-1.107299 -4.200057,-0.0021 -4.200059,-0.0021 0.0062,1.922061 c 0.0076,2.325928 0.62448,3.837175 2.092584,5.126188 2.600555,2.283314 5.330952,2.984259 17.406511,4.468579 8.385398,1.03073 10.502398,1.867477 11.260148,4.450588 1.119952,3.817821 -2.609252,7.976971 -8.527375,9.510512 -5.280326,1.368271 -13.452036,0.561358 -19.153372,-1.89129 l -1.376252,-0.592047 v -2.242931 c 0,-1.233612 -0.107854,-2.242934 -0.239678,-2.242934 -0.131821,0 -0.390893,0.504719 -0.575715,1.121595 -0.227843,0.760474 -1.148942,1.985087 -2.860794,3.80347 -2.888567,3.068323 -3.414535,3.851286 -2.831266,4.214664 0.823174,0.512837 6.661806,1.688616 10.209199,2.055924 2.136833,0.221253 5.691116,0.18093 8.684863,-0.09853 z m 21.50138,-30.246534 c 0.006,-0.770977 1.489234,-3.480684 3.26059,-5.956848 1.024168,-1.431671 1.862122,-2.828202 1.862122,-3.103406 0,-0.401249 -0.613183,-0.646986 -3.095398,-1.24051 -6.776707,-1.620377 -13.88315,-1.63255 -20.034419,-0.03432 -4.984586,1.295104 -11.340835,4.119814 -13.997173,6.220325 l -1.152472,0.91132 1.414066,0.188616 c 0.777735,0.103741 2.258137,0.199843 3.289776,0.213564 1.804535,0.024 1.91996,-0.01714 3.041669,-1.084202 2.539084,-2.415373 6.313818,-3.470592 12.419282,-3.471788 4.234103,-7.94e-4 6.810563,0.386622 9.659765,1.452645 2.28618,0.855371 2.759911,1.569989 2.759911,4.163316 0,1.208312 0.12069,2.09722 0.284748,2.09722 0.156614,0 0.286004,-0.160171 0.287533,-0.355936 z M 29.994015,26.509024 v -0.854249 h -3.456791 c -2.958246,0 -3.511347,0.07187 -3.835064,0.498311 -0.84478,1.112858 -0.567505,1.210185 3.447735,1.210185 h 3.84412 z"
       style="fill:none;fill-opacity:1;stroke:none;stroke-width:1.25379;stroke-miterlimit:4;stroke-dasharray:none" />
    <path
       id="path938"
       d="m 22.534432,26.459431 c 0,-0.04963 0.01889,-0.08169 0.305322,-0.517777 l 0.305321,-0.464867 0.320058,-8.7e-5 c 0.315127,-8.8e-5 2.808351,-0.01474 5.046758,-0.02965 l 1.143135,-0.0076 -2.65e-4,0.04485 c -1.98e-4,0.02466 -0.04895,0.264753 -0.108341,0.533522 l -0.107982,0.488667 -3.451952,0.0029 -3.451956,0.0029 z"
       style="fill:#ffffff;fill-opacity:1;stroke:none;stroke-width:0.0512305;stroke-miterlimit:4;stroke-dasharray:none" />
    <path
       id="path942"
       d="m 24.464279,24.052291 c 0,-0.0031 0.157314,-0.146343 0.349584,-0.318333 0.316143,-0.282792 0.403476,-0.351496 0.91299,-0.718233 0.524203,-0.377309 0.616307,-0.437531 1.323665,-0.865462 l 0.760259,-0.459936 1.375161,-0.675804 c 1.368169,-0.67237 1.380287,-0.677979 2.383026,-1.103305 1.462082,-0.620159 3.010135,-1.211998 4.602599,-1.759622 l 1.179052,-0.405458 0.925234,-0.253362 c 1.37018,-0.375206 2.114003,-0.538917 3.599717,-0.792279 0.967068,-0.164918 1.19256,-0.198832 1.717371,-0.2583 0.332275,-0.03765 0.614826,-0.06842 0.627891,-0.06839 0.02249,6.3e-5 0.02376,0.08575 0.02376,1.608831 V 19.5914 h -1.2818 -1.281803 l -0.954852,0.0745 -0.954855,0.0745 -1.011415,0.149238 -1.011414,0.149238 -0.855293,0.204171 -0.855292,0.204171 -0.678801,0.225782 -0.678802,0.225785 -0.825392,0.390768 -0.825391,0.390772 -0.518639,0.344855 -0.518636,0.344855 -0.485278,0.417838 -0.485277,0.417838 -0.340771,0.426101 -0.340772,0.426101 h -2.937912 c -1.61585,0 -2.937913,-0.0026 -2.937913,-0.0056 z"
       style="fill:#ffffff;fill-opacity:1;stroke:none;stroke-width:0.0597773;stroke-miterlimit:4;stroke-dasharray:none" />
    <path
       id="path944"
       d="m 56.113597,25.929412 c -0.0046,-0.234206 -0.0083,-0.747083 -0.0083,-1.139724 l 3.9e-5,-0.713894 -0.07102,-0.381997 -0.07102,-0.381995 -0.221151,-0.451496 -0.221152,-0.451495 -0.302202,-0.26353 L 54.916612,21.88175 54.188179,21.534339 53.45975,21.186928 52.512433,20.862033 C 51.473046,20.505557 51.683422,20.565882 50.287628,20.224051 49.803623,20.10552 49.756094,20.096448 48.88489,19.956335 L 47.983129,19.811309 46.861076,19.704806 45.739023,19.598301 H 44.9918 44.244579 v -1.402739 -1.402739 h 5.478137 5.47814 l 0.461584,0.07531 c 0.377209,0.06155 0.672447,0.12219 1.615157,0.331767 l 1.153573,0.25645 1.263647,0.361828 c 1.152943,0.330131 1.357577,0.394764 1.357577,0.428789 0,0.0062 -0.0965,0.204361 -0.214439,0.440251 -0.210392,0.420793 -0.220012,0.437165 -0.50972,0.867246 -0.192791,0.286207 -0.610116,0.864372 -1.202357,1.665753 -0.824981,1.116309 -0.953227,1.296543 -1.416981,1.991389 l -0.509905,0.76399 -0.34613,0.67006 -0.346131,0.670057 -0.186137,0.500978 c -0.102378,0.275539 -0.188955,0.509431 -0.192397,0.519763 -0.0034,0.01035 -0.01,-0.172836 -0.01458,-0.407043 z"
       style="fill:#ffffff;fill-opacity:1;stroke:none;stroke-width:0.0551471;stroke-miterlimit:4;stroke-dasharray:none" />
    <path
       id="path946"
       d="m 44.242024,16.583038 c -0.0021,-0.11538 -0.0037,-0.210709 -0.0037,-0.211839 0,-0.0011 0.154991,-0.0195 0.344422,-0.04083 0.258847,-0.02914 0.512463,-0.04641 1.020744,-0.06949 0.371975,-0.01688 1.07084,-0.04854 1.553032,-0.07034 l 0.876711,-0.03963 1.65949,0.07117 1.65949,0.07117 1.077103,0.111929 c 1.062469,0.110408 1.088078,0.113716 1.884932,0.243433 0.444304,0.07233 0.816279,0.13371 0.826614,0.136403 0.01032,0.0027 -2.436839,0.0056 -5.438162,0.0063 l -5.456946,0.0013 z"
       style="fill:#ffffff;fill-opacity:1;stroke:none;stroke-width:0.0551471;stroke-miterlimit:4;stroke-dasharray:none" />
    <path
       id="path948"
       d="m 56.125948,26.098494 c -0.0042,-0.11366 -0.01103,-0.625856 -0.01516,-1.138211 l -0.0075,-0.931558 -0.06728,-0.360783 -0.06728,-0.360786 -0.218924,-0.448556 -0.218924,-0.448559 -0.308042,-0.269277 -0.308043,-0.269274 -0.729232,-0.346901 -0.729231,-0.3469 -0.857925,-0.293632 c -0.970219,-0.332066 -1.06635,-0.361085 -1.76762,-0.533604 -1.051274,-0.258622 -0.978522,-0.243813 -2.064861,-0.420285 l -0.732682,-0.119023 -1.108413,-0.105952 -1.108414,-0.10595 -2.066536,-0.008 -2.066534,-0.008 -0.964385,0.07646 -0.964382,0.07646 -1.008219,0.149061 -1.008218,0.149061 -0.638747,0.152167 c -0.351311,0.08369 -0.64861,0.155032 -0.660664,0.158536 -0.02077,0.006 -0.02191,-0.05377 -0.02191,-1.132319 v -1.138693 l 0.47906,-0.16406 c 0.374994,-0.128421 0.628698,-0.204854 1.167905,-0.351851 1.621991,-0.442182 2.257875,-0.584028 3.819959,-0.852109 0.931262,-0.159822 1.213811,-0.20134 1.877936,-0.275947 0.353602,-0.03972 0.452279,-0.04721 0.460081,-0.03492 0.0055,0.0086 0.01003,0.316701 0.01013,0.68466 1e-4,0.367956 0.003,0.666229 0.0064,0.662824 0.0034,-0.0034 0.0065,-0.311468 0.0069,-0.684589 l 7.94e-4,-0.678402 0.02755,-0.0058 c 0.0325,-0.0068 0.322768,-0.03903 0.509741,-0.05659 0.235297,-0.02212 0.536366,-0.03777 1.916242,-0.0997 l 1.358903,-0.06099 0.526029,0.02312 c 0.289314,0.01273 0.93182,0.04036 1.427787,0.06144 1.346954,0.05724 1.326414,0.05586 2.235615,0.150622 1.218335,0.126989 1.447194,0.15798 2.592562,0.351062 l 0.206653,0.03484 -4.846963,0.0044 -4.846963,0.0044 4.909584,0.0033 4.909588,0.0032 0.438356,0.07406 c 0.504727,0.08528 0.661956,0.11765 1.897454,0.390647 0.896533,0.198099 0.919909,0.204044 1.847358,0.469776 1.444559,0.413898 1.684607,0.488365 1.684488,0.52256 -1.27e-4,0.02103 -0.337399,0.696685 -0.413591,0.828413 -0.185603,0.320892 -0.586589,0.887939 -1.634046,2.310759 -0.760251,1.032693 -0.864142,1.180325 -1.46998,2.088891 l -0.328086,0.492024 -0.344678,0.666488 -0.344678,0.666491 -0.170013,0.457142 c -0.09351,0.251428 -0.177017,0.476869 -0.185579,0.500978 -0.01394,0.03928 -0.01635,0.02236 -0.0232,-0.162817 z"
       style="fill:#ffffff;fill-opacity:1;stroke:none;stroke-width:0.0551471;stroke-miterlimit:4;stroke-dasharray:none" />
    <path
       id="path950"
       d="m 56.125974,26.098494 c -0.0043,-0.11366 -0.01109,-0.623718 -0.01508,-1.133464 l -0.0073,-0.926809 -0.06727,-0.364292 -0.06727,-0.364291 -0.219419,-0.449797 -0.219419,-0.4498 -0.305707,-0.267438 -0.305708,-0.267436 -0.731263,-0.348413 -0.731264,-0.348412 -0.701368,-0.240786 C 51.57984,20.53414 51.569458,20.531042 50.600726,20.294491 49.841258,20.109039 49.719184,20.084833 48.759631,19.929403 l -0.738942,-0.119695 -1.102728,-0.105172 -1.102728,-0.105174 -2.065959,-0.008 -2.065959,-0.008 -0.960483,0.07631 -0.960479,0.07631 -1.012122,0.149518 -1.012121,0.149519 -0.632484,0.150879 c -0.347866,0.08298 -0.645165,0.153902 -0.660664,0.157599 l -0.02818,0.0067 v -1.139965 c 0,-0.626981 0.0021,-1.139963 0.0049,-1.139963 0.0027,0 0.218261,-0.07295 0.47906,-0.162102 0.647462,-0.22134 2.035308,-0.602107 2.947763,-0.808744 0.815922,-0.184777 2.348666,-0.462788 3.237571,-0.587235 0.324557,-0.04544 1.123895,-0.13394 1.132459,-0.125383 0.004,0.004 0.01019,0.27591 0.01376,0.604263 l 0.0065,0.597009 0.0029,-0.604068 0.0029,-0.604065 0.02818,-0.006 c 0.04995,-0.01066 0.486392,-0.05604 0.660665,-0.06869 0.298635,-0.02167 0.384932,-0.02598 1.765948,-0.0881 l 1.358905,-0.06113 0.532289,0.0235 c 0.292759,0.01291 1.005713,0.04342 1.584344,0.06778 1.208979,0.0509 1.093798,0.04251 2.248138,0.163756 1.040508,0.109286 1.149069,0.123462 1.985126,0.259231 l 0.638747,0.103727 -3.93894,0.0063 -3.938942,0.0063 4.002027,0.0031 4.002026,0.0031 0.406583,0.06828 c 0.50954,0.08557 0.739907,0.132982 1.922039,0.395542 0.941411,0.209092 0.961964,0.214312 1.872406,0.475691 1.449536,0.41615 1.665753,0.483601 1.665753,0.519637 0,0.0335 -0.399169,0.808262 -0.496882,0.964422 -0.212347,0.339352 -0.539954,0.799481 -1.448991,2.035133 -0.854151,1.161044 -0.983292,1.344398 -1.633357,2.319035 -0.260392,0.390404 -0.269857,0.406948 -0.612365,1.07043 l -0.347887,0.673897 -0.176784,0.476342 c -0.09723,0.261986 -0.179711,0.484794 -0.183288,0.495126 -0.0036,0.01035 -0.01003,-0.07421 -0.01434,-0.187865 z"
       style="fill:#ffffff;fill-opacity:1;stroke:none;stroke-width:0.0551471;stroke-miterlimit:4;stroke-dasharray:none" />
    <path
       id="path952"
       d="m 46.377322,19.657419 -0.620056,-0.05942 -0.755904,-1.8e-4 c -0.501595,-1.16e-4 -0.755904,-0.0013 -0.755904,-0.0035 0,-0.0021 -0.432157,-0.0033 -1.289804,-0.0033 h -1.289802 l -0.747887,0.05822 c -0.411337,0.03202 -0.753509,0.05869 -0.760386,0.05926 l -0.01249,0.0011 V 18.36892 17.028334 l 0.03417,-0.0074 c 0.527674,-0.113713 1.219017,-0.240559 2.197703,-0.403233 0.641977,-0.106709 0.821246,-0.13104 1.57348,-0.213572 0.287187,-0.03151 0.27142,-0.03021 0.275428,-0.02273 0.0069,0.01297 0.0096,0.06404 0.01294,0.2476 0.0019,0.104511 0.0039,0.199769 0.0044,0.211685 0.0021,0.05003 0.0016,-0.215519 -7.94e-4,-0.335028 -0.0013,-0.07151 -0.0016,-0.131006 -5.29e-4,-0.132218 0.0016,-0.0019 0.253931,-0.03199 0.39869,-0.04758 0.189497,-0.0204 0.437054,-0.03787 0.758404,-0.0535 0.05776,-0.0028 0.136512,-0.0066 0.175017,-0.0085 0.0385,-0.0019 0.368532,-0.01677 0.733401,-0.03312 0.364866,-0.01635 0.676521,-0.0306 0.692563,-0.03168 l 0.02917,-0.0019 v 1.760284 1.760281 l -0.01582,-5.29e-4 c -0.0087,-2.25e-4 -0.29486,-0.02715 -0.635892,-0.05983 z"
       style="fill:#ffffff;fill-opacity:1;stroke:none;stroke-width:0.0146785;stroke-miterlimit:4;stroke-dasharray:none" />
    <path
       transform="scale(0.26458333)"
       id="path954"
       d=""
       style="fill:#ffffff;fill-opacity:1;stroke:none;stroke-width:0.0554779;stroke-miterlimit:4;stroke-dasharray:none" />
    <path
       id="path956"
       d="m 44.235377,16.416514 c -10e-5,-0.01786 -0.005,-0.03947 -0.0096,-0.04232 -0.0044,-0.0027 -0.02479,-7.94e-4 -0.215177,0.02 -0.08427,0.0092 -0.156276,0.01633 -0.160015,0.0158 -0.0037,-5.29e-4 0.156903,-0.01953 0.356984,-0.04223 0.20008,-0.0227 0.365548,-0.04067 0.367704,-0.03995 0.0021,7.94e-4 -0.07137,0.01003 -0.163382,0.02069 -0.09202,0.01066 -0.169392,0.02019 -0.171942,0.02117 -0.0037,0.0013 -0.0042,0.0076 -0.0024,0.03139 0.0013,0.0163 0.0013,0.02961 9e-5,0.02961 -0.0011,0 -0.0021,-0.0064 -0.0021,-0.01416 z"
       style="fill:#ffffff;fill-opacity:1;stroke:none;stroke-width:0.0146785;stroke-miterlimit:4;stroke-dasharray:none" />
    <path
       transform="scale(0.26458333)"
       id="path958"
       d=""
       style="fill:#ffffff;fill-opacity:1;stroke:none;stroke-width:0.0554779;stroke-miterlimit:4;stroke-dasharray:none" />
    <path
       transform="scale(0.26458333)"
       id="path960"
       d=""
       style="fill:#ffffff;fill-opacity:1;stroke:none;stroke-width:0.0554779;stroke-miterlimit:4;stroke-dasharray:none" />
    <path
       id="path962"
       d="m 46.393991,19.658332 -0.60339,-0.05857 -0.778404,-0.0028 c -0.428125,-0.0016 -1.355961,-0.0035 -2.061859,-0.0044 -1.124921,-0.0016 -1.291275,-0.0011 -1.346792,0.0034 -0.03484,0.0028 -0.371618,0.029 -0.748403,0.05828 -0.376783,0.02929 -0.690687,0.05372 -0.697564,0.05429 l -0.01249,0.0011 V 18.3691 17.02857 l 0.02585,-0.0057 c 0.436192,-0.09688 1.199457,-0.237132 2.1777,-0.400161 0.662835,-0.110466 0.82713,-0.132993 1.555145,-0.213243 0.31334,-0.03454 0.317812,-0.03496 0.321667,-0.03031 0.0069,0.0084 0.01013,0.06723 0.01339,0.246724 0.0019,0.104511 0.004,0.193768 0.0048,0.198353 7.93e-4,0.0046 2.64e-4,-0.08693 -7.94e-4,-0.203353 -0.0011,-0.116428 -0.0021,-0.219906 -0.0021,-0.229955 l -1.56e-4,-0.01828 0.01667,-0.0024 c 0.03713,-0.0053 0.369064,-0.04298 0.448373,-0.05086 0.09346,-0.0093 0.260771,-0.02236 0.385035,-0.03012 0.187037,-0.01167 0.313312,-0.01773 1.178444,-0.05658 0.385953,-0.01733 0.714856,-0.0324 0.730901,-0.03348 l 0.02917,-0.0019 v 1.760284 1.760281 l -0.01582,-2.65e-4 c -0.0087,-2.06e-4 -0.287358,-0.02673 -0.619223,-0.05894 z"
       style="fill:#ffffff;fill-opacity:1;stroke:none;stroke-width:0.0146785;stroke-miterlimit:4;stroke-dasharray:none" />
    <path
       id="path964"
       d="m 46.393991,19.658536 -0.60339,-0.05838 -0.936752,-0.0035 c -0.515215,-0.0019 -1.451303,-0.0036 -2.080194,-0.0038 l -1.143439,-2.64e-4 -0.730068,0.05742 c -0.401537,0.03158 -0.735692,0.05806 -0.742569,0.05885 l -0.01249,0.0013 V 18.36879 c 0,-0.737812 5.29e-4,-1.341474 0.0013,-1.341474 7.94e-4,0 0.05132,-0.01058 0.112511,-0.02355 0.501751,-0.106183 1.117407,-0.21884 2.029767,-0.37143 0.700448,-0.117147 0.863841,-0.139883 1.555144,-0.216406 0.376447,-0.04167 0.377735,-0.0418 0.381659,-0.03707 0.0069,0.0083 0.01037,0.06979 0.01365,0.238347 0.0019,0.09806 0.0043,0.179065 0.0053,0.180015 0.0016,0.0016 0.0011,-0.05663 -0.0031,-0.363247 l -7.94e-4,-0.06162 0.01667,-0.0024 c 0.0092,-0.0013 0.09468,-0.0114 0.190019,-0.02241 0.4597,-0.05303 0.511503,-0.0563 1.821833,-0.115171 0.385953,-0.01733 0.714859,-0.03245 0.730901,-0.03359 l 0.02917,-0.0021 v 1.760413 1.760413 l -0.01582,-2.65e-4 c -0.0087,-2.04e-4 -0.287359,-0.02664 -0.619223,-0.05875 z"
       style="fill:#ffffff;fill-opacity:1;stroke:none;stroke-width:0.0146785;stroke-miterlimit:4;stroke-dasharray:none" />
    <path
       id="path966"
       d="M 29.708575,56.668262 C 25.484627,56.523998 21.898739,55.9706 17.95871,54.854945 17.330454,54.67705 16.997764,54.569756 16.957698,54.532116 l -0.06001,-0.05638 0.121994,-0.261062 c 0.06991,-0.149593 0.262615,-0.460745 0.451337,-0.728736 0.32516,-0.461738 0.351531,-0.490218 2.076439,-2.242384 1.706711,-1.733685 1.756289,-1.787128 2.144787,-2.312053 0.452787,-0.611788 0.781881,-1.172573 0.999588,-1.703314 l 0.148195,-0.36128 0.01606,0.263443 c 0.0088,0.144893 0.02867,0.954741 0.04409,1.799661 l 0.02803,1.536219 0.10564,0.102084 c 0.08533,0.08245 0.320638,0.193572 1.223783,0.577892 0.96357,0.410033 1.282377,0.530183 2.306169,0.869132 2.692212,0.891318 5.065212,1.365161 8.008691,1.599182 0.984105,0.07824 1.113613,0.08224 2.669564,0.08239 1.581944,1.41e-4 1.665827,-0.0026 2.571726,-0.0824 1.880894,-0.165828 3.508359,-0.500748 5.073571,-1.044104 0.655095,-0.227415 0.880327,-0.322601 1.705909,-0.720963 0.829881,-0.400436 1.030544,-0.510469 1.573707,-0.862941 0.458274,-0.297387 0.770522,-0.527183 1.18337,-0.870892 1.005449,-0.837068 1.620626,-1.600047 2.109179,-2.615941 0.211103,-0.438962 0.258503,-0.568055 0.404545,-1.101783 l 0.165421,-0.604562 -5.3e-4,-1.002766 -5.29e-4,-1.002766 -0.122123,-0.447256 c -0.101119,-0.37033 -0.165389,-0.536208 -0.373661,-0.964399 l -0.251534,-0.517141 -0.513273,-0.5065 -0.513276,-0.5065 -0.489188,-0.251589 C 49.104459,40.254493 48.473346,40.033209 47.397886,39.764305 45.583895,39.310741 44.312054,39.124646 39.268804,38.574868 32.931131,37.88398 28.562313,37.058882 26.390332,36.142625 25.544483,35.7858 24.809516,35.345285 24.062076,34.747146 c -0.53308,-0.426598 -0.57753,-0.469868 -0.956085,-0.930693 -0.339969,-0.413848 -0.435063,-0.552622 -0.661808,-0.965784 -0.342701,-0.624465 -0.512506,-1.098693 -0.662995,-1.851629 -0.107863,-0.539675 -0.108948,-0.551561 -0.109043,-1.195768 -8.5e-5,-0.601327 0.0062,-0.68507 0.08293,-1.104164 0.04566,-0.249421 0.09657,-0.500664 0.113127,-0.558319 l 0.0301,-0.104825 h 3.842297 3.842301 v 0.138171 c 0,0.115839 0.03803,0.21736 0.235262,0.628112 0.206788,0.430639 0.271878,0.536403 0.537747,0.873792 0.287229,0.364495 0.325054,0.400622 0.750099,0.716436 0.390686,0.290285 0.520221,0.367811 1.018484,0.609563 0.805284,0.390713 1.374413,0.557684 3.049117,0.894541 1.743191,0.350633 3.80307,0.653965 7.854947,1.156692 4.423122,0.548788 6.216626,0.813924 8.316182,1.229389 2.520985,0.498858 3.709379,0.841597 4.78435,1.379831 0.604221,0.302532 1.246796,0.729451 1.762722,1.171133 0.325922,0.279019 0.4151,0.376219 0.758601,0.826855 0.371475,0.487333 0.400364,0.534887 0.632258,1.040773 0.203425,0.443775 0.265973,0.616606 0.384067,1.061225 l 0.141063,0.531119 -0.01553,1.076211 -0.01553,1.076212 -0.142075,0.517141 c -0.111075,0.404294 -0.204285,0.660482 -0.427168,1.174049 -0.277352,0.639069 -0.297836,0.675883 -0.754446,1.355746 -0.369205,0.549727 -0.572476,0.818129 -0.952661,1.257908 -1.210617,1.400398 -3.075271,2.862686 -5.513433,4.323729 -3.264447,1.956181 -6.793737,3.409844 -10.565743,4.351882 -1.00666,0.251407 -2.684566,0.581012 -3.858305,0.75792 -2.419779,0.364707 -5.602415,0.560777 -7.854233,0.483868 z"
       style="fill:#ffffff;fill-opacity:1;stroke:none;stroke-width:0.123084;stroke-miterlimit:4;stroke-dasharray:none" />
  </g>
</svg>
